<svg width="29" height="28" viewBox="0 0 29 28" fill="none" xmlns="http://www.w3.org/2000/svg">
<g clip-path="url(#clip0_240_3831)">
<path d="M10.0586 20.0876C11.0677 20.0876 11.8857 18.8685 11.8857 17.3646C11.8857 15.8607 11.0677 14.6416 10.0586 14.6416C9.04954 14.6416 8.23151 15.8607 8.23151 17.3646C8.23151 18.8685 9.04954 20.0876 10.0586 20.0876Z" fill="white"/>
<path d="M18.9666 14.6416C17.9614 14.6416 17.1395 15.8623 17.1395 17.3646C17.1395 18.867 17.9551 20.0876 18.9666 20.0876C19.9782 20.0876 20.7938 18.867 20.7938 17.3646C20.7938 15.8623 19.9782 14.6416 18.9666 14.6416Z" fill="white"/>
<path d="M24.4164 25.6025C27.1666 23.8373 29 20.7762 29 17.2896C29 11.831 24.5112 7.38658 18.9983 7.38658H14.8193V4.4883C15.894 4.3005 16.7159 3.38032 16.7159 2.25982C16.7159 1.00786 15.6917 -0.00622559 14.4273 -0.00622559C13.1629 -0.00622559 12.1387 1.00786 12.1387 2.25982C12.1387 3.43039 13.0364 4.38188 14.1871 4.50082V7.38032H10.0081C4.48877 7.38658 0 11.831 0 17.2896C0 22.7481 4.48877 27.1925 10.0017 27.1925H18.9983C20.0035 27.1925 20.9771 27.0423 21.8938 26.7669C21.9191 26.7919 21.9318 26.8107 21.9634 26.8357C23.7715 28.3881 26.4079 27.9437 26.4079 27.9437C25.1118 27.7622 24.6124 26.4726 24.4227 25.6025H24.4164ZM18.1764 24.4695H10.8236C9.99542 24.4695 9.19882 24.3381 8.4528 24.1064C6.65729 25.5086 4.16634 25.0955 4.16634 25.0955C5.38021 24.9265 5.8923 23.7809 6.11358 22.9171C4.36233 21.6151 3.23065 19.6119 3.23065 17.3584C3.23065 13.4398 6.63833 10.2536 10.83 10.2536H18.1827C22.3743 10.2536 25.782 13.4398 25.782 17.3584C25.782 21.277 22.3743 24.4633 18.1827 24.4633L18.1764 24.4695Z" fill="white"/>
</g>
<defs>
<clipPath id="clip0_240_3831">
<rect width="29" height="28" fill="white"/>
</clipPath>
</defs>
</svg>
