<svg width="20" height="20" viewBox="0 0 20 20" fill="none" xmlns="http://www.w3.org/2000/svg">
<path d="M11.6667 12.3445V7.6553C11.6667 5.0343 11.6667 3.72381 10.8956 3.39767C10.1245 3.07153 9.21695 3.99819 7.40192 5.85152C6.46198 6.81129 5.9257 7.02382 4.58835 7.02382C3.4188 7.02382 2.83402 7.02382 2.41395 7.31043C1.54195 7.90538 1.67376 9.06824 1.67376 9.99992C1.67376 10.9316 1.54195 12.0945 2.41395 12.6894C2.83402 12.976 3.4188 12.976 4.58835 12.976C5.9257 12.976 6.46198 13.1885 7.40192 14.1483C9.21695 16.0016 10.1245 16.9283 10.8956 16.6022C11.6667 16.276 11.6667 14.9655 11.6667 12.3445Z" stroke="#5F1EBE" stroke-width="1.5" stroke-linecap="round" stroke-linejoin="round"/>
<path d="M14.1667 7.5C14.6878 8.18306 15 9.05287 15 10C15 10.9471 14.6878 11.8169 14.1667 12.5" stroke="#5F1EBE" stroke-width="1.5" stroke-linecap="round" stroke-linejoin="round"/>
<path d="M16.6667 5.83325C17.709 6.97169 18.3333 8.42137 18.3333 9.99992C18.3333 11.5785 17.709 13.0281 16.6667 14.1666" stroke="#5F1EBE" stroke-width="1.5" stroke-linecap="round" stroke-linejoin="round"/>
</svg>
